<?xml version="1.0" standalone="no"?>
<!DOCTYPE svg PUBLIC "-//W3C//DTD SVG 20010904//EN"
 "http://www.w3.org/TR/2001/REC-SVG-20010904/DTD/svg10.dtd">
<svg version="1.0" xmlns="http://www.w3.org/2000/svg"
 width="200.000000pt" height="200.000000pt" viewBox="0 0 200.000000 200.000000"
 preserveAspectRatio="xMidYMid meet">

<g transform="translate(0.000000,200.000000) scale(0.100000,-0.100000)"
fill="#000000" stroke="none">
<path d="M940 1859 c-126 -9 -207 -34 -345 -107 -136 -72 -182 -108 -265 -204
-74 -87 -120 -166 -166 -283 -24 -62 -28 -87 -32 -215 -5 -178 16 -297 74
-411 67 -133 229 -306 353 -377 130 -75 140 -79 267 -113 126 -33 127 -33 373
-13 147 12 319 93 421 198 24 25 49 46 55 46 6 0 16 12 23 28 6 15 31 54 54
87 51 71 106 225 117 324 13 130 -16 467 -46 526 -11 22 -26 58 -33 80 -19 60
-87 196 -112 222 -25 26 -209 133 -230 133 -8 0 -33 9 -55 20 -23 11 -63 25
-90 31 -26 6 -74 17 -105 25 -61 15 -91 15 -258 3z m330 -73 c126 -42 166 -60
229 -101 38 -24 72 -53 76 -64 3 -11 28 -40 54 -63 27 -24 60 -61 74 -83 129
-204 150 -654 41 -883 -25 -53 -62 -102 -130 -176 -88 -95 -103 -107 -199
-154 -57 -29 -108 -52 -114 -52 -6 0 -11 -4 -11 -9 0 -12 -122 -24 -235 -21
-113 2 -266 29 -328 58 -23 11 -60 28 -82 38 -98 44 -208 135 -297 249 -85
107 -139 230 -163 374 -14 81 -14 95 4 202 26 151 47 207 118 316 51 80 154
203 169 203 3 0 20 11 37 24 61 47 240 125 332 145 110 24 350 23 425 -3z"/>
<path d="M645 1606 c-33 -20 -46 -38 -69 -93 -39 -95 -44 -164 -17 -249 27
-89 66 -132 133 -150 65 -17 99 -4 150 55 33 39 35 46 42 133 11 162 8 209
-17 253 -27 47 -59 65 -130 71 -43 4 -59 1 -92 -20z m178 -308 c-3 -25 -15
-64 -27 -85 -17 -30 -28 -39 -55 -41 -57 -6 -122 71 -136 160 l-6 43 20 -25
c48 -60 46 -59 92 -49 54 12 76 31 85 73 3 17 9 36 12 41 10 16 20 -66 15
-117z"/>
<path d="M1075 1596 c-33 -20 -46 -38 -69 -93 -39 -95 -44 -164 -17 -251 27
-88 75 -137 147 -148 63 -9 89 2 135 56 l38 45 6 150 c6 145 5 151 -17 190
-28 47 -60 65 -131 71 -43 4 -59 1 -92 -20z m178 -308 c-3 -25 -15 -64 -27
-85 -17 -30 -28 -39 -55 -41 -55 -6 -118 67 -136 156 -8 41 9 42 30 2 13 -25
21 -30 53 -30 63 0 89 20 113 85 l12 30 8 -35 c4 -19 5 -56 2 -82z"/>
<path d="M568 665 c-12 -27 -1 -75 28 -122 30 -48 220 -103 357 -103 52 0 89
23 85 53 -5 35 -44 49 -113 41 -111 -13 -192 -12 -217 2 -12 7 -31 16 -40 20
-22 8 -33 43 -19 57 20 20 12 46 -19 62 -40 21 -49 19 -62 -10z"/>
</g>
</svg>
