<?xml version="1.0" standalone="no"?>
<!DOCTYPE svg PUBLIC "-//W3C//DTD SVG 20010904//EN"
 "http://www.w3.org/TR/2001/REC-SVG-20010904/DTD/svg10.dtd">
<svg version="1.0" xmlns="http://www.w3.org/2000/svg"
 width="200.000000pt" height="200.000000pt" viewBox="0 0 200.000000 200.000000"
 preserveAspectRatio="xMidYMid meet">

<g transform="translate(0.000000,200.000000) scale(0.100000,-0.100000)"
fill="#000000" stroke="none">
<path d="M940 1859 c-126 -9 -207 -34 -345 -107 -136 -72 -182 -108 -265 -204
-74 -87 -120 -166 -166 -283 -24 -62 -28 -87 -32 -215 -5 -178 16 -297 74
-411 67 -133 229 -306 353 -377 130 -75 140 -79 267 -113 126 -33 127 -33 373
-13 90 7 239 59 311 107 73 50 186 165 243 247 46 68 106 237 115 328 14 130
-15 467 -45 527 -11 22 -26 58 -33 80 -19 60 -87 196 -112 222 -25 26 -209
133 -230 133 -8 0 -33 9 -55 20 -23 11 -63 25 -90 31 -26 6 -74 17 -105 25
-61 15 -91 15 -258 3z m330 -73 c126 -42 166 -60 229 -101 38 -24 72 -53 76
-64 3 -11 28 -40 54 -63 89 -79 138 -185 168 -363 47 -277 3 -548 -117 -713
-29 -40 -34 -43 -64 -38 -67 13 -292 112 -314 138 -16 20 -34 186 -22 209 15
27 12 66 -6 83 -19 19 -25 20 -48 3 -17 -12 -17 -19 -1 -132 22 -168 27 -179
93 -224 32 -21 73 -42 92 -46 38 -8 170 -81 170 -93 0 -21 -75 -76 -166 -121
-140 -70 -242 -91 -389 -81 -171 13 -219 25 -361 91 -22 10 -44 19 -48 19 -13
0 -120 78 -167 122 -54 50 -149 169 -172 214 -40 78 -78 192 -92 273 -14 81
-14 95 4 202 26 153 47 208 124 326 90 138 169 208 322 283 165 82 252 100
445 95 94 -2 161 -9 190 -19z"/>
<path d="M500 1325 c-19 -23 -3 -50 73 -121 157 -146 239 -178 439 -172 110 3
132 7 143 21 7 10 11 27 8 38 -8 29 -45 33 -90 11 -83 -43 -245 -34 -315 18
-15 11 -32 20 -38 20 -19 0 -106 88 -126 127 -36 73 -66 91 -94 58z"/>
<path d="M684 676 c-12 -31 3 -52 59 -81 32 -16 76 -48 98 -70 46 -44 113
-173 104 -198 -17 -42 46 -77 75 -42 15 18 -9 71 -76 171 -24 36 -44 68 -44
70 0 3 -36 40 -79 84 -59 60 -86 80 -105 80 -15 0 -29 -6 -32 -14z"/>
</g>
</svg>
